<?xml version="1.0"?><svg id="Calque_2" xmlns="http://www.w3.org/2000/svg" viewBox="0 0 500.3634 116.5019"><g id="Components"><g id="b201268c-60ab-42d2-ac7a-84527decfc73_1"><path d="M0,57.8403h19.5539v43.7224C7.5478,90.8342,0,75.2171,0,57.8403Z" style="fill:#EAE6DE;"></path><path d="M39.1077,2.529v55.3114h-6.518V5.2795c2.0988-1.0429,4.2757-1.9684,6.518-2.7506Z" style="fill:#EAE6DE;"></path><path d="M58.6616,57.8403v58.6616c-6.8569,0-13.4401-1.1733-19.5539-3.3372v-55.3244h19.5539Z" style="fill:#EAE6DE;"></path><path d="M78.2155,2.529v55.3114h-9.7769V0c3.3632.5605,6.6352,1.4078,9.7769,2.529Z" style="fill:#EAE6DE;"></path><path d="M117.3232,57.8403c0,17.3768-7.5478,32.9939-19.5539,43.7224V14.1178c12.006,10.7417,19.5539,26.3456,19.5539,43.7225Z" style="fill:#EAE6DE;"></path><path d="M97.7693,57.8403v43.7224c-5.6446,5.0579-12.2668,9.0339-19.5539,11.602v-55.3244h19.5539Z" style="fill:#EAE6DE;"></path><path d="M225.4252,34.8099l-16.552,52.5282h-14.8311l-7.6538-27.8421-7.5585,27.8421h-14.7339l-16.6492-52.5282h14.8311l9.5672,37.3159,9.3766-37.3159h11.3854l9.186,37.4112,8.9936-37.4112h14.6386Z" style="fill:#EAE6DE;"></path><path d="M282.367,60.8358c0,15.117-9.9503,26.9807-24.2077,26.9807-6.4093,0-11.576-2.3918-15.3076-6.6018v31.3831h-13.0129V34.8099h12.0562l.9567,5.645c3.7316-4.2081,8.9936-6.2187,15.4047-6.2187,14.2555,0,24.1105,11.3854,24.1105,26.5995ZM269.4494,60.8358c0-8.803-5.4526-15.6925-13.6819-15.6925-6.2187,0-11.1948,4.3071-12.9158,10.3334v10.6211c1.721,6.0281,6.6971,10.2381,12.9158,10.2381,8.2293,0,13.6819-6.7942,13.6819-15.5Z" style="fill:#EAE6DE;"></path><path d="M337.7411,53.2773v34.0608h-13.0129v-32.5304c0-6.0281-3.6344-9.2813-9.9503-9.2813-6.6018,0-12.8205,3.8269-12.8205,9.9503v31.8615h-13.1082v-52.6235h11.6731l.8614,6.8895c3.8269-4.6883,10.6192-7.5585,17.1257-7.5585,11.9609,0,19.2316,7.0801,19.2316,19.2316Z" style="fill:#EAE6DE;"></path><path d="M344.0233,60.9311c0-15.2123,11.0023-27.0779,26.5976-27.0779s26.6948,11.8656,26.6948,27.0779c0,15.117-11.0995,27.076-26.6948,27.076s-26.5976-11.959-26.5976-27.076ZM384.3981,60.9311c0-8.7077-5.5479-15.6906-13.7772-15.6906-8.3227,0-13.7772,6.983-13.7772,15.6906s5.4544,15.5953,13.7772,15.5953c8.2293,0,13.7772-6.8895,13.7772-15.5953Z" style="fill:#EAE6DE;"></path><path d="M451.6191,34.8099l-20.9526,52.5282h-12.4393l-20.8573-52.5282h13.9678l13.1082,37.699,13.1082-37.699h14.0649Z" style="fill:#EAE6DE;"></path><path d="M451.664,72.4117c0-9.5672,8.8011-15.5953,21.5263-16.6473l11.1948-.9567v-1.1492c0-6.6971-3.541-9.3748-9.5672-9.3748-5.5497,0-10.4286,2.4871-11.0042,8.8964h-10.8117c.7661-9.7578,6.8895-18.9439,22.199-18.9439,12.7252,0,21.0479,6.3159,21.0479,19.6147v17.221c0,5.1667,2.0087,6.6018,4.1147,6.6018v9.6644c-.9567,0-2.2012.0953-3.541,0-4.3053-.1906-8.9936-.5737-11.1929-5.9328-2.9673,3.9241-9.5691,6.6018-16.7445,6.6018-10.0456,0-17.221-5.7403-17.221-15.5953ZM484.385,71.455v-8.1321l-8.803.9567c-7.366.8614-11.2901,3.4438-11.2901,7.5585,0,4.0194,3.4457,6.5065,7.6556,6.5065,5.5479,0,10.2362-3.2532,12.4374-6.8895Z" style="fill:#EAE6DE;"></path></g></g></svg>